Coordinates
version=1
nRows=29
nColumns=24
inDegrees=yes

Units are S.I. units (second, meters, Newtons, ...)
Angles are in degrees.

endheader
time	pelvis_tilt	pelvis_list	pelvis_rotation	pelvis_tx	pelvis_ty	pelvis_tz	hip_flexion_r	hip_adduction_r	hip_rotation_r	knee_angle_r	ankle_angle_r	subtalar_angle_r	mtp_angle_r	hip_flexion_l	hip_adduction_l	hip_rotation_l	knee_angle_l	ankle_angle_l	subtalar_angle_l	mtp_angle_l	lumbar_extension	lumbar_bending	lumbar_rotation
      0.75900000	      0.24913622	      0.78234668	     11.40223399	      0.03933479	      0.98698544	      0.22167082	     28.78470253	     -5.31576397	    -10.56764392	     -1.88199492	      9.88831970	     -5.46843838	      4.38762666	    -19.57357640	      0.71347206	     13.85869762	    -10.86723682	     17.66137785	     -4.67494829	     -0.48884080	     -2.87258993	     -2.52990170	    -10.43341056
      0.76316667	      0.27027482	      0.69625559	     11.63428960	      0.04567172	      0.98636370	      0.22200433	     28.75586654	     -5.29166957	    -10.50217750	     -2.54751277	      9.89399074	     -5.91168352	      4.39829995	    -19.73721410	      0.44918688	     13.74485118	    -11.23711338	     17.57289808	     -4.31439216	     -0.46282401	     -2.78479596	     -2.42997551	    -10.67404970
      0.76733333	      0.30055458	      0.59972046	     11.85978334	      0.05208797	      0.98577742	      0.22237691	     28.69601108	     -5.24043675	    -10.42910259	     -3.17637494	      9.81988346	     -6.40090557	      4.42443075	    -19.93118129	      0.17270669	     13.71636768	    -11.56045713	     17.39067624	     -4.09703007	     -0.41402710	     -2.68762548	     -2.32033616	    -10.86597811
      0.77150000	      0.33190264	      0.49905569	     12.09014821	      0.05854444	      0.98521819	      0.22276720	     28.61549491	     -5.17655223	    -10.35718886	     -3.76760183	      9.64780475	     -6.94437119	      4.47396180	    -20.10693606	     -0.11146417	     13.66758131	    -11.91957841	     17.19821831	     -3.89132963	     -0.32587184	     -2.59237429	     -2.21020903	    -11.08229304
      0.77566667	      0.36756318	      0.39096361	     12.31492846	      0.06505312	      0.98468318	      0.22319249	     28.51876396	     -5.09256160	    -10.29065810	     -4.33186210	      9.42236771	     -7.49695960	      4.55674354	    -20.27888182	     -0.40632473	     13.60413516	    -12.29141794	     16.97900199	     -3.68944267	     -0.18791871	     -2.49848099	     -2.09995797	    -11.27497067
      0.77983333	      0.38477316	      0.26346885	     12.52438302	      0.07165144	      0.98415167	      0.22366781	     28.43881815	     -4.97875028	    -10.25662124	     -4.88030597	      9.11004498	     -8.00782146	      4.64445476	    -20.44018839	     -0.71629970	     13.55623826	    -12.63397230	     16.70701967	     -3.50782448	     -0.04703029	     -2.35506991	     -1.96761542	    -11.45271383
      0.78400000	      0.43151046	      0.13593861	     12.74572833	      0.07826110	      0.98368238	      0.22414353	     28.30228137	     -4.85220203	    -10.19461396	     -5.36939129	      8.71734042	     -8.64616838	      4.78486499	    -20.60092581	     -1.03911034	     13.45742053	    -13.03598844	     16.43025634	     -3.30928664	      0.17230005	     -2.25429029	     -1.83896394	    -11.65358888
      0.78816667	      0.45637588	     -0.00271868	     12.95100054	      0.08492978	      0.98320724	      0.22467621	     28.19178081	     -4.70434710	    -10.15060408	     -5.84457180	      8.24172120	     -9.26505018	      4.97478227	    -20.73740863	     -1.36655644	     13.36044874	    -13.43021926	     16.11010044	     -3.11407046	      0.46243963	     -2.11407307	     -1.70678510	    -11.82330413
      0.79233333	      0.50304054	     -0.13927287	     13.12986329	      0.09165071	      0.98278330	      0.22527911	     28.05476713	     -4.53253284	    -10.07620932	     -6.29369510	      7.65954726	     -9.92173742	      5.37457459	    -20.90422570	     -1.69573418	     13.23139515	    -13.80099082	     15.70858927	     -2.85528018	      1.06106610	     -1.99284896	     -1.59298534	    -11.96823479
      0.79650000	      0.53840005	     -0.32928871	     13.32908824	      0.09842058	      0.98237235	      0.22584135	     27.92897792	     -4.32001995	    -10.11380797	     -6.71732077	      7.03162131	    -10.50582586	      5.61671156	    -21.01979001	     -2.07648354	     13.10843198	    -14.23569987	     15.34646911	     -2.75889897	      1.43085830	     -1.83536925	     -1.38974289	    -12.13708258
      0.80066667	      0.57306124	     -0.51010816	     13.49583457	      0.10522536	      0.98197918	      0.22647500	     27.81370344	     -4.09546398	    -10.10231401	     -7.14144758	      6.31260744	    -11.13444363	      5.88056970	    -21.13840826	     -2.44154851	     12.95153914	    -14.65745296	     14.91397980	     -2.59650699	      1.83708094	     -1.67129600	     -1.20839495	    -12.25202997
      0.80483333	      0.60436137	     -0.69398025	     13.64338548	      0.11206451	      0.98159957	      0.22715955	     27.72636712	     -3.86607196	    -10.16612008	     -7.59195481	      5.50422980	    -11.64546542	      8.38653466	    -21.23924940	     -2.81207349	     12.71901647	    -15.08852664	     14.39289869	     -2.33986804	      5.66497001	     -1.49341517	     -1.04693371	    -12.24374244
      0.80900000	      0.63969165	     -0.91217090	     13.78092930	      0.11895058	      0.98126279	      0.22784441	     27.63230073	     -3.58823962	    -10.16396413	     -8.02556882	      4.72942187	    -12.21720382	      8.40725066	    -21.34661249	     -3.19961728	     12.58655894	    -15.51318193	     13.84906884	     -2.32126692	      5.73574089	     -1.32122071	     -0.79678022	    -12.45157949
      0.81316667	      0.68347950	     -1.11860884	     13.90094079	      0.12582812	      0.98096551	      0.22860677	     27.53694856	     -3.30494217	    -10.13366127	     -8.45430522	      3.86892056	    -12.85914747	      8.47757673	    -21.43096444	     -3.58013574	     12.35065062	    -15.99423914	     13.30248644	     -2.17776475	      5.90308812	     -1.15156547	     -0.61385409	    -12.53145123
      0.81733333	      0.72612263	     -1.33250426	     13.99098742	      0.13272074	      0.98069181	      0.22942428	     27.46987195	     -3.00273538	    -10.08164050	     -8.92446222	      2.98985201	    -13.45216258	      8.61797078	    -21.50989171	     -3.95813294	     12.09611797	    -16.47507094	     12.70842074	     -2.00027329	      6.21770927	     -0.98989400	     -0.40330463	    -12.59119786
      0.82150000	      0.77786363	     -1.58882121	     14.06552739	      0.13966523	      0.98043495	      0.23025566	     27.42431579	     -2.65992541	    -10.12029756	     -9.44082622	      2.16916367	    -13.90641365	     10.01533275	    -21.56338202	     -4.38387175	     11.72539925	    -17.00147208	     12.07871362	     -1.75977291	      9.27103742	     -0.80123046	     -0.13952747	    -12.52146641
      0.82566667	      0.80355428	     -1.83532524	     14.12087325	      0.14660064	      0.98019767	      0.23110772	     27.42463484	     -2.32409924	    -10.09869078	     -9.99848914	      1.37451828	    -14.37283939	     10.02976539	    -21.59759926	     -4.76419181	     11.49114860	    -17.51972155	     11.37549622	     -1.81712661	      9.36460836	     -0.59603644	      0.11355888	    -12.65338452
      0.82983333	      0.85307269	     -2.09953887	     14.14243781	      0.15354839	      0.98000440	      0.23203360	     27.42621644	     -1.95032847	    -10.05783460	    -10.59692318	      0.62030300	    -14.80981885	     10.07055940	    -21.63230340	     -5.16616981	     11.13994822	    -18.07606517	     10.67181119	     -1.71278147	      9.54745189	     -0.41294101	      0.38619284	    -12.64289782
      0.83400000	      0.90388883	     -2.35059093	     14.14673781	      0.16046781	      0.97985757	      0.23300781	     27.44548822	     -1.58163452	     -9.97420512	    -11.23997921	     -0.12198741	    -15.24507145	     10.15748109	    -21.64628583	     -5.55005332	     10.76202340	    -18.66676581	      9.90552141	     -1.56284911	      9.92828626	     -0.26180351	      0.63579257	    -12.61695794
      0.83816667	      0.95868311	     -2.62961816	     14.12033697	      0.16741750	      0.97972667	      0.23402536	     27.49004671	     -1.17590133	     -9.89783609	    -11.93624931	     -0.78339597	    -15.63124990	     10.30180510	    -21.64717115	     -5.95255401	     10.33101833	    -19.28337806	      9.10621316	     -1.44655813	     10.61305519	     -0.08582624	      0.92775414	    -12.54848540
      0.84233333	      1.01540551	     -2.89650162	     14.07028195	      0.17436549	      0.97963178	      0.23502193	     27.58281000	     -0.79984245	     -9.91988750	    -12.77100686	     -1.14096407	    -15.62085313	     10.32099602	    -21.64839324	     -6.32160132	      9.92994008	    -19.90586714	      8.21513932	     -1.46182081	     10.72427282	      0.09373415	      1.23038702	    -12.54937541
      0.84650000	      1.08745597	     -3.20107938	     13.99679744	      0.18132293	      0.97955953	      0.23611512	     27.66028301	     -0.35631194	     -9.85418152	    -13.57842791	     -1.63833317	    -15.85681173	     11.05389042	    -21.63037623	     -6.74182566	      9.40871578	    -20.56592849	      7.24222157	     -1.40195176	     15.99597280	      0.22971720	      1.56137152	    -12.48691434
      0.85066667	      1.15314326	     -3.46538130	     13.90697763	      0.18824709	      0.97953025	      0.23720409	     27.77011943	      0.03832095	     -9.80892679	    -14.47958755	     -1.89758620	    -15.89168536	     11.04775106	    -21.59805699	     -7.09855925	      8.94581890	    -21.25922208	      6.25060126	     -1.40021086	     16.00408798	      0.38180141	      1.84322024	    -12.44673589
      0.85483333	      1.21396169	     -3.76091784	     13.77594460	      0.19519477	      0.97949741	      0.23840010	     27.88763420	      0.49390424	     -9.67750582	    -15.36825783	     -2.19994553	    -16.04824690	     11.01056041	    -21.53511720	     -7.48263436	      8.38867791	    -21.99603966	      5.27378931	     -1.31576595	     16.25362228	      0.52891675	      2.15849956	    -12.19588231
      0.85900000	      1.30338601	     -4.03014709	     13.64640764	      0.20210546	      0.97955102	      0.23956103	     27.98771332	      0.91245508	     -9.62105017	    -16.31542177	     -2.34786405	    -16.02392228	     11.00077063	    -21.48768814	     -7.83919726	      7.85839247	    -22.75211608	      4.19567090	     -1.32888177	     16.30430331	      0.64586119	      2.45938195	    -12.19654653
      0.86316667	      1.38899105	     -4.30716792	     13.49067013	      0.20901126	      0.97961319	      0.24077121	     28.09162956	      1.35202396	     -9.53208112	    -17.26319282	     -2.44013159	    -15.98319986	     10.98641050	    -21.41476166	     -8.19678152	      7.29195262	    -23.54598196	      3.08088283	     -1.33119444	     16.38024580	      0.75465366	      2.77589712	    -12.13739846
      0.86733333	      1.45421748	     -4.58061790	     13.30579156	      0.21590717	      0.97965707	      0.24204591	     28.22202354	      1.79743421	     -9.41203681	    -18.23879173	     -2.38248294	    -15.86979740	     10.04344379	    -21.30356357	     -8.54122109	      6.69992649	    -24.35723399	      1.82741924	     -1.40185064	     21.04900661	      0.87232267	      3.07813061	    -11.85836413
      0.87150000	      1.57068498	     -4.84901486	     13.12559170	      0.22276950	      0.97982404	      0.24332032	     28.27263848	      2.24817922	     -9.32631998	    -19.15968698	     -2.41047245	    -15.78513898	     10.04305349	    -21.21645533	     -8.89960063	      6.07337872	    -25.21946948	      0.62449142	     -1.37658386	     21.04873212	      0.92646163	      3.38724452	    -11.82809373
      0.87566667	      1.67648173	     -5.12085579	     12.92400168	      0.22961496	      0.97999169	      0.24463536	     28.32250729	      2.71361176	     -9.20710042	    -20.06326349	     -2.33131642	    -15.64553531	     10.03139884	    -21.10015107	     -9.25203462	      5.44814310	    -26.11306393	     -0.61399888	     -1.38719331	     21.08049030	      0.96780740	      3.71089834	    -11.71036121
